<?xml version="1.0" standalone="no"?>
<!DOCTYPE svg PUBLIC "-//W3C//DTD SVG 20010904//EN"
 "http://www.w3.org/TR/2001/REC-SVG-20010904/DTD/svg10.dtd">
<svg version="1.0" xmlns="http://www.w3.org/2000/svg"
 width="255.000000pt" height="255.000000pt" viewBox="0 0 255.000000 255.000000"
 preserveAspectRatio="xMidYMid meet">
<metadata>
Created by potrace 1.14, written by Peter Selinger 2001-2017
</metadata>
<g transform="translate(0.000000,255.000000) scale(0.100000,-0.100000)"
fill="#000000" stroke="none">
<path d="M1138 2474 c-2 -2 -26 -6 -54 -9 -71 -8 -155 -26 -194 -42 -8 -4 -17
-7 -20 -8 -170 -46 -417 -216 -532 -367 -13 -16 -28 -35 -34 -42 -41 -44 -175
-301 -173 -331 0 -3 -6 -29 -15 -58 -8 -28 -17 -69 -20 -89 -3 -21 -8 -53 -11
-70 -11 -73 -12 -98 -2 -98 6 0 6 -4 0 -12 -9 -13 -9 -82 2 -183 6 -61 31
-166 51 -220 9 -22 15 -41 15 -43 -5 -9 85 -182 130 -248 63 -94 198 -232 289
-294 103 -71 258 -146 343 -164 15 -4 25 -11 22 -16 -3 -5 1 -7 9 -4 8 3 39 1
69 -6 126 -26 307 -29 422 -6 28 5 42 8 105 23 14 3 31 6 38 6 6 0 12 4 12 9
0 4 8 8 19 8 10 0 40 10 67 22 27 11 51 20 53 19 2 -2 7 1 10 6 3 4 28 18 54
31 27 12 54 27 60 32 7 6 44 33 82 61 100 72 225 202 276 287 10 18 24 30 29
27 5 -3 7 0 4 8 -6 17 35 89 47 81 5 -3 6 2 3 11 -4 8 0 23 7 32 8 9 13 17 11
17 -2 1 1 14 7 29 6 16 11 32 11 37 0 5 12 18 28 30 22 17 23 19 4 10 -22 -11
-23 -10 -12 9 6 12 8 21 4 21 -3 0 -2 6 3 13 11 13 32 109 38 172 2 22 4 40 5
40 1 0 3 48 4 108 0 59 -1 107 -4 107 -3 0 -5 12 -6 28 -1 30 -9 81 -23 141
-5 22 -6 42 -3 46 3 3 1 5 -5 5 -5 0 -10 7 -11 15 -1 8 -3 22 -4 30 -1 8 -5
15 -10 15 -4 0 -8 7 -8 15 0 19 -80 189 -92 193 -4 2 -8 8 -8 13 0 9 -33 60
-55 85 -5 6 -21 26 -35 44 -61 81 -255 250 -287 250 -6 0 -13 3 -15 8 -4 10
-111 65 -178 90 -71 28 -191 59 -255 68 -54 7 -262 13 -267 8z"/>
<path d="M2113 505 c0 -8 4 -12 9 -9 5 3 6 10 3 15 -9 13 -12 11 -12 -6z"/>
</g>
</svg>
